<svg xmlns="http://www.w3.org/2000/svg" xmlns:xlink="http://www.w3.org/1999/xlink" viewBox="0 0 487.08 201.78">
  <defs>
    <style>
      .cls-1, .cls-2, .cls-3 {
        fill: none;
      }

      .cls-2 {
        clip-path: url(#clip-path);
      }

      .cls-3 {
        clip-path: url(#clip-path-2);
      }

      .cls-4 {
        font-size: 190.54px;
        font-family: Amboy-Black, Amboy ;
        font-weight: 800;
        letter-spacing: -0.02em;
      }

      .cls-4, .cls-8 {
        fill: #151515;
      }

      .cls-5 {
        fill: #faa436;
      }

      .cls-6 {
        clip-path: url(#clip-path-3);
      }

      .cls-7 {
        fill: #fff;
      }
    </style>
    <clipPath id="clip-path">
      <rect class="cls-1" x="419.11" y="88.74" width="78.2" height="24.88" transform="translate(74.05 370.65) rotate(-47.5)"/>
    </clipPath>
    <clipPath id="clip-path-2">
      <polyline class="cls-2" points="440.96 138.4 422.62 121.59 475.44 63.94 493.79 80.75 440.96 138.4"/>
    </clipPath>
    <clipPath id="clip-path-3">
      <polygon class="cls-3" points="441.36 138.76 494.18 81.11 475.05 63.58 422.22 121.23 441.36 138.76 441.36 138.76"/>
    </clipPath>
  </defs>
  <g id="Layer_2" data-name="Layer 2">
    <g id="Layer_1-2" data-name="Layer 1">
      <g>
        <text class="cls-4" transform="translate(0 171.48)">CD</text>
        <path class="cls-5" d="M230.55,87.6c7.65,0,18.41-10.25,22.69-17.31l.25-.42a1.11,1.11,0,0,0-.16-1.6l-.26-.25c-.25-.25-.42-.17-1,.59l-.26.33c-5.8,7.82-15,12.44-19.41,12.44a8.73,8.73,0,0,1-4.21-.84c.76-6.89,10.26-16.47,21.27-19.42,1.43-.33,1.93-1.93-1.26-4.45-2-1.6-3.62-2.27-5.46-2.27C237,54.4,227.94,60,223,66.5s-4.45,12.44-.33,17.24c2.52,2.85,4.11,3.86,7.9,3.86Zm42.7-.84c4.87,0,9-4.54,11.68-7.9a2.52,2.52,0,0,0,.67-1.6,6,6,0,0,0-.16-1.26c-.09-.17-.34-.17-.51,0a19.06,19.06,0,0,1-6.47,4.46c.25-2.36,1.76-5.89,3.45-9.42,2.69-5.46,3.36-7.14,3.36-8.23,0-.93-.84-1.94-2.78-2.86a13.87,13.87,0,0,0-4.79-1.6,2,2,0,0,0-1.85,1c-1.34-2.27-3.44-4.54-6-4.54-4.8,0-13.12,4.29-18.58,11.43-4.71,6.14-4.88,10.42-3,13.62,2,3.53,5.38,6.3,8.75,6.3,2.68,0,6.38-2.52,10.92-8.82-1.43,7.14,1.43,9.41,5.3,9.41Zm-15-6.64c-.51-3.36,2.1-8.24,6-12.1,2.94-2.86,6.47-5.3,10.09-6.22-6.23,11.43-11.18,16.56-16.14,18.32Zm15.88,29.34c3.62-.76,6-1.68,11.1-8.66,3-4.2,7.56-11.18,12-18.24a8,8,0,0,0,6.64,2.94c4.71,0,11.52-3.36,16-8.57,3.62-4.21,6-8.91,6-13a7.93,7.93,0,0,0-2.19-6,7,7,0,0,0-5.12-2.18,23.69,23.69,0,0,0-8.16,1.85c0-1.52-1.17-2.44-2.86-3.11a7.94,7.94,0,0,0-3.19-1.09c-1.09,0-2,1.09-11.35,15.46-6.47,9.92-14,23-22.69,38.42-1,1.85-.26,2.52,1,2.52a16.73,16.73,0,0,0,2.85-.42Zm26.31-32.2c2.1-3.44,4-6.81,5.72-9.66,6.3-5.21,10.76-7.74,14.37-8.16.26,4.71-9.16,15.39-20.09,17.82Zm35.65,9.67c7.56,0,18.4-11.77,21.35-16.64l.25-.42a1.11,1.11,0,0,0-.17-1.6l-.25-.25c-.25-.25-.42-.17-1,.59l-.25.33c-5.64,7.57-12.36,12.19-16.81,12.19a8,8,0,0,1-1.6-.17c2.52-5.8,9.41-16.31,14.37-23.53,2.78-.59,5.3-1.18,7.06-1.6a4.3,4.3,0,0,0,2.19-1,4.18,4.18,0,0,0,.59-2c0-.42-.26-.5-1.35-.5-1.26.08-3,.17-5.21.33,3.11-4.7,4.79-7.64,4.79-9.66,0-1.77-1.26-2.94-3.28-3.95a12.6,12.6,0,0,0-4.2-1.52c-.59,0-.84.42-2,2.61A158.58,158.58,0,0,1,341.42,54c-2.44.25-4.71.5-6.89.76-1.09.16-1.52.33-1.52.92a9.78,9.78,0,0,0,.59,2.94c.34.84,1.43,1.26,3.7,1.1-2.6,3.61-5,6.89-6.47,9.24-4,6.22-4.54,10.68-3.19,12.53,2.26,3.19,5.12,5.46,8.49,5.46Zm26.81-1.18c2.35-1,5.38-3.61,8.83-7.56-.76,4.79.67,7.9,4.45,7.9,8.74,0,18.16-10.76,21.18-15.8l.25-.42a1.1,1.1,0,0,0-.16-1.6l-.26-.25c-.25-.25-.42-.17-1,.59l-.26.33c-5.63,7.57-9.58,10.17-13.36,10.85A37.36,37.36,0,0,1,389.84,66a1.73,1.73,0,0,0,.33-1.93,23.77,23.77,0,0,0-5.63-4.79,3.21,3.21,0,0,0-2.44-.34,10.88,10.88,0,0,0-5.54-4,9.24,9.24,0,0,0-5.22.34,35,35,0,0,0-15.63,10.84c-5,5.89-5.63,10.76-3.7,14a9.28,9.28,0,0,0,3.7,3.7c3.28,2.85,5.13,2.94,7.23,2Zm-1.09-5.46c-.17-6.39,8.23-15.8,17.65-18.83a83.86,83.86,0,0,0-4.79,8c-4,5.29-8.58,9-12.86,10.84Zm50.68-31.77a8.06,8.06,0,0,0,3.53.92,4.44,4.44,0,0,0,3.79-1.68c1-1,3.44-3.28,5.63-5.46.67-.68.25-1.18-.59-1.85A14.11,14.11,0,0,0,420.1,38c-.67-.17-1.43.33-2.69,1.76A31.11,31.11,0,0,0,412.53,47c-.33.76-.33,1.26,0,1.52ZM399.59,86.85c6.3,0,15.89-10.26,19.67-16.56l.25-.42a1.11,1.11,0,0,0-.17-1.6l-.25-.25c-.25-.25-.42-.17-1,.59l-.25.33c-7.31,9.75-12.61,12.19-16.56,12.53,1-3,3.78-7.48,8.41-14,2.94-4.12,4.62-7.06,4.62-8.74,0-3.2-5.3-3.62-7.4-3.62a1.46,1.46,0,0,0-1.34.59A155.87,155.87,0,0,0,396,68.94c-6.3,9.75-6.13,11.69-2.35,15.13,2.35,1.94,3.53,2.78,6,2.78Zm21.27-1.26c2-2,4.79-6.06,9.07-12.45a154.59,154.59,0,0,1,12.44-9.83c-2.6,4-6.8,7.82-8.91,12.27-1.34,2.94-.5,5.3,1.52,7.57a8.3,8.3,0,0,0,6,3c1.51,0,4.11-.75,8.4-3.61,3-2,4.88-3.53,5.47-5a8.26,8.26,0,0,0,.42-1.43c.08-.59-.09-.84-.59-.5-4.79,3.27-7.9,4.87-9.75,4.87a2.34,2.34,0,0,1-1.1-.25c1.26-4,6.22-10.26,8.24-14.54,1.35-2.86,1.26-4.37-.67-6.14a5.78,5.78,0,0,0-3.95-1.68c-1.85,0-5.55,1.6-10,4,.75-1.85.08-3.11-1.27-4.45-2.1-2-5.12-3.45-6.89-3.45a1.23,1.23,0,0,0-1.18.76c-1.09,1.93-4.95,7.23-10.25,14.2-3.53,4.62-6.05,8.83-6.05,11.27A6.13,6.13,0,0,0,414.47,85a7.33,7.33,0,0,0,4.28,1.93c.59,0,1.1-.34,2.11-1.34Z"/>
        <path class="cls-5" d="M255.38,138.27c.92,2.36,2.69,4.29,5.13,4.29,7.9,0,16.81-10.25,19.83-15.38l.26-.42a1.12,1.12,0,0,0-.17-1.6l-.26-.25c-.25-.25-.42-.17-1,.59l-.26.33c-4.62,6.14-8.57,9.33-11.93,10.68.08-5.13,3.44-11.77,10.42-23.2,4.2-6.89,9-14.21,12.27-19.08,2.19-3.36,2-6,.51-7.48a56.36,56.36,0,0,0-4.46-3.87c-.59-.42-1.17-.34-1.76.42-5.3,7.06-14.71,21.35-20.85,31.1-1.6-1.76-3.61-2.94-5.29-2.94-5,0-14.13,4.79-20.35,13-2.52,3.28-3.53,6.3-3.53,8.83a8.89,8.89,0,0,0,3.62,7c1.85,2.27,3.53,3.28,5.29,3.28,3.45,0,7.9-3.45,12.19-8.49a7.28,7.28,0,0,0,.34,3.19Zm-11.52-.75c-.33-6.22,7.65-15.8,16.81-19.25a50,50,0,0,0-4.28,9.75c-3.87,4.45-8.24,7.9-12.53,9.5Zm42.79,6.3c8.4,0,19.33-7.48,24.79-16.64l.26-.42a1.11,1.11,0,0,0-.17-1.6l-.25-.25c-.26-.25-.42-.17-1,.59l-.25.33c-6.06,8.07-14.13,12.53-20.85,12.53a11.44,11.44,0,0,1-3.53-.51,13.28,13.28,0,0,1,.17-3.11A59.7,59.7,0,0,0,299.42,129c5.38-3.36,7.15-6,7.15-8s-1.09-3.44-2.94-5c-2.36-3.53-4.12-4.29-6.39-4.29-5.72,0-13.95,5.05-18.66,11.27-3.62,4.87-4.79,10-3.53,12.86a14.45,14.45,0,0,0,6.3,6.89,11,11,0,0,0,5.3,1.09Zm10.08-18.15a43.45,43.45,0,0,1-9.41,5c2.86-5.8,8.91-11.1,14.12-12.36.17,2.44-1,4.63-4.71,7.32Zm11.94,22.1a15.52,15.52,0,0,0,8.24-2.86c3.87-2.77,5.13-5.46,5.13-8.15,0-5.29-5.21-6.64-5.21-9.16,0-2.94,6.3-6.56,12.18-8.41.93-.33,1.1-1.34-.92-4.54-1.85-2.85-3.78-3.69-6-3.69a14.1,14.1,0,0,0-6.14,2c-3.86,2.19-6.47,5.38-6.47,8.91,0,4.46,5.47,6.9,5.47,10,0,2.69-4.12,6.64-12.53,9.49-.67.26-.84.76-.5,1.52a9.12,9.12,0,0,0,1.85,2.77,6,6,0,0,0,4.87,2.1Zm38.5-42.36a8,8,0,0,0,3.53.92,4.43,4.43,0,0,0,3.78-1.68c1-1,3.45-3.28,5.64-5.46.67-.67.25-1.18-.59-1.85a14.39,14.39,0,0,0-4.79-2.44c-.68-.17-1.43.34-2.69,1.77a30.8,30.8,0,0,0-4.88,7.23c-.34.75-.34,1.26,0,1.51Zm-12.94,38.33c6.3,0,15.88-10.26,19.67-16.56l.25-.42a1.11,1.11,0,0,0-.17-1.6l-.25-.25c-.26-.25-.42-.17-1,.59l-.25.33c-7.32,9.75-12.61,12.19-16.56,12.53,1-3,3.78-7.48,8.4-14,2.94-4.12,4.63-7.06,4.63-8.74,0-3.2-5.3-3.62-7.4-3.62a1.49,1.49,0,0,0-1.35.59,156.26,156.26,0,0,0-9.58,13.28c-6.3,9.75-6.13,11.69-2.35,15.13,2.35,1.94,3.53,2.78,6,2.78Zm4.54,24.88c7.73,0,20.59-6.22,33.79-25.13,9.75-4,15.46-9.17,20.84-16.31l.25-.34a1.19,1.19,0,0,0-.08-1.68l-.34-.25c-.25-.17-.5-.08-1,.59l-.26.33c-3.44,4.63-9.33,9.08-15.8,12.19,5.38-8.4,10.26-16.73,11.68-19.41a1.91,1.91,0,0,0-.58-2.61,22,22,0,0,0-5.64-2.44c-1.26-.33-2.1.09-3.19,1.68a8.1,8.1,0,0,0-6.72-3.78c-6.73,0-15.39,5.8-20.51,12.69-5.72,7.57-3.53,13.45.42,15.47a5.2,5.2,0,0,0,3.86,1.6c2.52,0,6.31-1.77,10.43-5.22-1.52,2.27-3.11,4.54-4.71,6.65-7.65,1.76-15.55,3.11-22.44,6.13-6.65,2.94-10,7.23-10,11.69a7.12,7.12,0,0,0,2.19,5.21c2.27,2.27,4.54,2.94,7.82,2.94Zm18.15-33.12c1.26-6,9.92-14,19.5-16.81-1.09,2-2.27,4-3.44,6-5.8,6.81-10.85,10-16.06,10.84Zm-13.78,24.38a21.26,21.26,0,0,1-7.91,2.6c1.43-7.06,9.76-10.59,21.69-14.45-4.37,5-9,9.24-13.78,11.85Zm70.52-15.72c4,0,10.34-3.7,14.37-7.15a3.83,3.83,0,0,0,1-2.94c0-.59-.25-.84-.75-.5-4.71,3.28-8.41,4.45-10,4.45a2.41,2.41,0,0,1-.84-.17c2.69-5.54,6.64-10.42,8.66-14.71,1.77-3.78,1.43-6-.25-7.14-1.93-1.43-3.36-2.1-4.37-2.1a7.88,7.88,0,0,0-3.87,1.51,57,57,0,0,0-7.9,6.39c1.09-2.35,1.68-4,1.68-4.88,0-1.51-.59-2-2.86-3.61a8.92,8.92,0,0,0-4-1.77c-1.68,0-3.53,2.36-12.53,14.29-4.28,5.72-6.22,9.67-6.22,12.28a3.51,3.51,0,0,0,2.86,3.44,30.59,30.59,0,0,0,5.05,1.18c.84,0,1.84-.76,3.44-2.94,7-9.75,12.86-15,17.23-17.57-1.17,3.11-4.7,7.06-7.31,12.94a6,6,0,0,0,.42,5.72,7.87,7.87,0,0,0,6.22,3.28Z"/>
        <g class="cls-6">
          <polygon class="cls-7" points="447.07 105.44 451.87 100.19 459.74 107.4 454.93 112.64 447.07 105.44 447.07 105.44"/>
          <path class="cls-8" d="M478.29,71.37a3.56,3.56,0,0,1,5-.22l2.62,2.4a3.56,3.56,0,0,1,.22,5L459.74,107.4l-7.87-7.21,26.42-28.82Z"/>
          <path class="cls-8" d="M451.76,97.68l10.49,9.61a1.78,1.78,0,1,1-2.41,2.62l-10.48-9.61a1.78,1.78,0,1,1,2.4-2.62Z"/>
          <path class="cls-8" d="M430.48,128.8,441.29,117l-1.31-1.2a1.78,1.78,0,1,1,2.4-2.62l5.24,4.8a1.78,1.78,0,0,1-2.4,2.62l-1.31-1.2L433.1,131.2l22.27-8.52s-4-6.11-.44-10l-7.86-7.2c-3.6,3.93-10,.43-10,.43l-6.55,22.93Z"/>
        </g>
      </g>
    </g>
  </g>
</svg>
